<?xml version="1.0" encoding="UTF-8" standalone="no"?>
<!DOCTYPE svg PUBLIC "-//W3C//DTD SVG 1.1//EN"
 "http://www.w3.org/Graphics/SVG/1.1/DTD/svg11.dtd">
<!-- Generated by graphviz version 2.43.0 (0)
 -->
<!-- Title: %3 Pages: 1 -->
<svg width="931pt" height="165pt"
 viewBox="0.00 0.00 931.00 164.74" xmlns="http://www.w3.org/2000/svg" xmlns:xlink="http://www.w3.org/1999/xlink">
<g id="graph0" class="graph" transform="scale(1 1) rotate(0) translate(36 128.74)">
<title>%3</title>
<polygon fill="dimgray" stroke="transparent" points="-36,36 -36,-128.74 895,-128.74 895,36 -36,36"/>
<text text-anchor="middle" x="429.5" y="-77.54" font-family="Helvetica,sans-Serif" font-size="14.00">Sweep&#39;s Plan &amp; Progress</text>
<!-- start -->
<g id="node1" class="node">
<title>start</title>
</g>
<!-- b90db5f8&#45;c42a&#45;4a05&#45;b700&#45;c737d92fc91d -->
<g id="node3" class="node">
<title>b90db5f8&#45;c42a&#45;4a05&#45;b700&#45;c737d92fc91d</title>
<ellipse fill="yellow" stroke="black" cx="165.5" cy="-26.87" rx="113.27" ry="26.74"/>
<text text-anchor="middle" x="165.5" y="-30.67" font-family="Helvetica,sans-Serif" font-size="14.00">⋯ Create</text>
<text text-anchor="middle" x="165.5" y="-15.67" font-family="Helvetica,sans-Serif" font-size="14.00">src/song_analysis.py</text>
</g>
<!-- start&#45;&gt;b90db5f8&#45;c42a&#45;4a05&#45;b700&#45;c737d92fc91d -->
<g id="edge4" class="edge">
<title>start&#45;&gt;b90db5f8&#45;c42a&#45;4a05&#45;b700&#45;c737d92fc91d</title>
<path fill="none" stroke="black" d="M1.24,-26.87C4.81,-26.87 21.03,-26.87 41.99,-26.87"/>
<polygon fill="black" stroke="black" points="42.28,-30.37 52.28,-26.87 42.28,-23.37 42.28,-30.37"/>
<text text-anchor="middle" x="26.68" y="-33.67" font-family="Helvetica,sans-Serif" font-size="14.00">Start</text>
</g>
<!-- end -->
<g id="node2" class="node">
<title>end</title>
</g>
<!-- 20a7092a&#45;1bd3&#45;4fcf&#45;9de3&#45;0d2f0af14e8f -->
<g id="node4" class="node">
<title>20a7092a&#45;1bd3&#45;4fcf&#45;9de3&#45;0d2f0af14e8f</title>
<ellipse fill="white" stroke="black" cx="383.5" cy="-26.87" rx="69.09" ry="26.74"/>
<text text-anchor="middle" x="383.5" y="-30.67" font-family="Helvetica,sans-Serif" font-size="14.00">▶ Create</text>
<text text-anchor="middle" x="383.5" y="-15.67" font-family="Helvetica,sans-Serif" font-size="14.00">src/main.py</text>
</g>
<!-- b90db5f8&#45;c42a&#45;4a05&#45;b700&#45;c737d92fc91d&#45;&gt;20a7092a&#45;1bd3&#45;4fcf&#45;9de3&#45;0d2f0af14e8f -->
<g id="edge1" class="edge">
<title>b90db5f8&#45;c42a&#45;4a05&#45;b700&#45;c737d92fc91d&#45;&gt;20a7092a&#45;1bd3&#45;4fcf&#45;9de3&#45;0d2f0af14e8f</title>
<path fill="none" stroke="black" d="M278.76,-26.87C287.1,-26.87 295.43,-26.87 303.77,-26.87"/>
<polygon fill="black" stroke="black" points="303.94,-30.37 313.94,-26.87 303.94,-23.37 303.94,-30.37"/>
</g>
<!-- 7d2830a2&#45;af50&#45;4a81&#45;8523&#45;2260bbcabcce -->
<g id="node5" class="node">
<title>7d2830a2&#45;af50&#45;4a81&#45;8523&#45;2260bbcabcce</title>
<ellipse fill="white" stroke="black" cx="557.5" cy="-26.87" rx="69.09" ry="26.74"/>
<text text-anchor="middle" x="557.5" y="-30.67" font-family="Helvetica,sans-Serif" font-size="14.00">▶ Modify</text>
<text text-anchor="middle" x="557.5" y="-15.67" font-family="Helvetica,sans-Serif" font-size="14.00">src/main.py</text>
</g>
<!-- 20a7092a&#45;1bd3&#45;4fcf&#45;9de3&#45;0d2f0af14e8f&#45;&gt;7d2830a2&#45;af50&#45;4a81&#45;8523&#45;2260bbcabcce -->
<g id="edge2" class="edge">
<title>20a7092a&#45;1bd3&#45;4fcf&#45;9de3&#45;0d2f0af14e8f&#45;&gt;7d2830a2&#45;af50&#45;4a81&#45;8523&#45;2260bbcabcce</title>
<path fill="none" stroke="black" d="M452.83,-26.87C461.16,-26.87 469.49,-26.87 477.83,-26.87"/>
<polygon fill="black" stroke="black" points="477.99,-30.37 487.99,-26.87 477.99,-23.37 477.99,-30.37"/>
</g>
<!-- fe9b0190&#45;f94c&#45;4b43&#45;819f&#45;523067065e83 -->
<g id="node6" class="node">
<title>fe9b0190&#45;f94c&#45;4b43&#45;819f&#45;523067065e83</title>
<ellipse fill="white" stroke="black" cx="731.5" cy="-26.87" rx="69.09" ry="26.74"/>
<text text-anchor="middle" x="731.5" y="-30.67" font-family="Helvetica,sans-Serif" font-size="14.00">▶ Modify</text>
<text text-anchor="middle" x="731.5" y="-15.67" font-family="Helvetica,sans-Serif" font-size="14.00">src/main.py</text>
</g>
<!-- 7d2830a2&#45;af50&#45;4a81&#45;8523&#45;2260bbcabcce&#45;&gt;fe9b0190&#45;f94c&#45;4b43&#45;819f&#45;523067065e83 -->
<g id="edge3" class="edge">
<title>7d2830a2&#45;af50&#45;4a81&#45;8523&#45;2260bbcabcce&#45;&gt;fe9b0190&#45;f94c&#45;4b43&#45;819f&#45;523067065e83</title>
<path fill="none" stroke="black" d="M626.83,-26.87C635.16,-26.87 643.49,-26.87 651.83,-26.87"/>
<polygon fill="black" stroke="black" points="651.99,-30.37 661.99,-26.87 651.99,-23.37 651.99,-30.37"/>
</g>
<!-- fe9b0190&#45;f94c&#45;4b43&#45;819f&#45;523067065e83&#45;&gt;end -->
<g id="edge5" class="edge">
<title>fe9b0190&#45;f94c&#45;4b43&#45;819f&#45;523067065e83&#45;&gt;end</title>
<path fill="none" stroke="black" d="M800.95,-26.87C819.21,-26.87 836.81,-26.87 847.64,-26.87"/>
<polygon fill="black" stroke="black" points="847.79,-30.37 857.79,-26.87 847.79,-23.37 847.79,-30.37"/>
<text text-anchor="middle" x="829.4" y="-33.67" font-family="Helvetica,sans-Serif" font-size="14.00">Finish</text>
</g>
</g>
</svg>
