<?xml version="1.0" encoding="UTF-8" standalone="no"?>
<!DOCTYPE svg PUBLIC "-//W3C//DTD SVG 1.1//EN"
 "http://www.w3.org/Graphics/SVG/1.1/DTD/svg11.dtd">
<!-- Generated by graphviz version 2.43.0 (0)
 -->
<!-- Title: %3 Pages: 1 -->
<svg width="1105pt" height="238pt"
 viewBox="0.00 0.00 1105.00 237.74" xmlns="http://www.w3.org/2000/svg" xmlns:xlink="http://www.w3.org/1999/xlink">
<g id="graph0" class="graph" transform="scale(1 1) rotate(0) translate(36 201.74)">
<title>%3</title>
<polygon fill="dimgray" stroke="transparent" points="-36,36 -36,-201.74 1069,-201.74 1069,36 -36,36"/>
<text text-anchor="middle" x="516.5" y="-150.54" font-family="Helvetica,sans-Serif" font-size="14.00">Sweep&#39;s Plan &amp; Progress</text>
<!-- start -->
<g id="node1" class="node">
<title>start</title>
</g>
<!-- 7cdd72b6&#45;1d7a&#45;4472&#45;8673&#45;a1e9aa722192 -->
<g id="node3" class="node">
<title>7cdd72b6&#45;1d7a&#45;4472&#45;8673&#45;a1e9aa722192</title>
<ellipse fill="#0ee832" stroke="black" cx="237.5" cy="-99.87" rx="114.6" ry="26.74"/>
<text text-anchor="middle" x="237.5" y="-103.67" font-family="Helvetica,sans-Serif" font-size="14.00">✓ Create</text>
<text text-anchor="middle" x="237.5" y="-88.67" font-family="Helvetica,sans-Serif" font-size="14.00">src/user_interface.py</text>
</g>
<!-- start&#45;&gt;7cdd72b6&#45;1d7a&#45;4472&#45;8673&#45;a1e9aa722192 -->
<g id="edge6" class="edge">
<title>start&#45;&gt;7cdd72b6&#45;1d7a&#45;4472&#45;8673&#45;a1e9aa722192</title>
<path fill="none" stroke="black" d="M71.24,-99.87C74.88,-99.87 91.43,-99.87 112.78,-99.87"/>
<polygon fill="black" stroke="black" points="112.9,-103.37 122.9,-99.87 112.9,-96.37 112.9,-103.37"/>
<text text-anchor="middle" x="96.97" y="-106.67" font-family="Helvetica,sans-Serif" font-size="14.00">Start</text>
</g>
<!-- end -->
<g id="node2" class="node">
<title>end</title>
</g>
<!-- b811d1ad&#45;9333&#45;454c&#45;a4b3&#45;4382cc60eb3f -->
<g id="node4" class="node">
<title>b811d1ad&#45;9333&#45;454c&#45;a4b3&#45;4382cc60eb3f</title>
<ellipse fill="white" stroke="black" cx="517.5" cy="-99.87" rx="69.09" ry="26.74"/>
<text text-anchor="middle" x="517.5" y="-103.67" font-family="Helvetica,sans-Serif" font-size="14.00">▶ Modify</text>
<text text-anchor="middle" x="517.5" y="-88.67" font-family="Helvetica,sans-Serif" font-size="14.00">src/main.py</text>
</g>
<!-- 7cdd72b6&#45;1d7a&#45;4472&#45;8673&#45;a1e9aa722192&#45;&gt;b811d1ad&#45;9333&#45;454c&#45;a4b3&#45;4382cc60eb3f -->
<g id="edge2" class="edge">
<title>7cdd72b6&#45;1d7a&#45;4472&#45;8673&#45;a1e9aa722192&#45;&gt;b811d1ad&#45;9333&#45;454c&#45;a4b3&#45;4382cc60eb3f</title>
<path fill="none" stroke="black" d="M352.07,-99.87C380.68,-99.87 409.3,-99.87 437.91,-99.87"/>
<polygon fill="black" stroke="black" points="438.03,-103.37 448.03,-99.87 438.03,-96.37 438.03,-103.37"/>
</g>
<!-- 39f7ff88&#45;370f&#45;45c2&#45;8629&#45;c1491e957aa9 -->
<g id="node6" class="node">
<title>39f7ff88&#45;370f&#45;45c2&#45;8629&#45;c1491e957aa9</title>
<polygon fill="#0ee832" stroke="black" points="355,-36 0,-36 0,0 355,0 355,-36"/>
<text text-anchor="middle" x="177.5" y="-14.3" font-family="Helvetica,sans-Serif" font-size="14.00">✓ Run GitHub Actions for `src/user_interface.py`</text>
</g>
<!-- 7cdd72b6&#45;1d7a&#45;4472&#45;8673&#45;a1e9aa722192&#45;&gt;39f7ff88&#45;370f&#45;45c2&#45;8629&#45;c1491e957aa9 -->
<g id="edge1" class="edge">
<title>7cdd72b6&#45;1d7a&#45;4472&#45;8673&#45;a1e9aa722192&#45;&gt;39f7ff88&#45;370f&#45;45c2&#45;8629&#45;c1491e957aa9</title>
<path fill="none" stroke="black" stroke-dasharray="5,2" d="M218.19,-73.16C211.26,-63.94 203.46,-53.56 196.56,-44.37"/>
<polygon fill="black" stroke="black" points="199.33,-42.23 190.52,-36.34 193.73,-46.43 199.33,-42.23"/>
</g>
<!-- 1dc97468&#45;11c3&#45;496b&#45;adf5&#45;84a933a7875c -->
<g id="node5" class="node">
<title>1dc97468&#45;11c3&#45;496b&#45;adf5&#45;84a933a7875c</title>
<ellipse fill="white" stroke="black" cx="796.5" cy="-99.87" rx="114.6" ry="26.74"/>
<text text-anchor="middle" x="796.5" y="-103.67" font-family="Helvetica,sans-Serif" font-size="14.00">▶ Modify</text>
<text text-anchor="middle" x="796.5" y="-88.67" font-family="Helvetica,sans-Serif" font-size="14.00">src/user_interface.py</text>
</g>
<!-- b811d1ad&#45;9333&#45;454c&#45;a4b3&#45;4382cc60eb3f&#45;&gt;1dc97468&#45;11c3&#45;496b&#45;adf5&#45;84a933a7875c -->
<g id="edge4" class="edge">
<title>b811d1ad&#45;9333&#45;454c&#45;a4b3&#45;4382cc60eb3f&#45;&gt;1dc97468&#45;11c3&#45;496b&#45;adf5&#45;84a933a7875c</title>
<path fill="none" stroke="black" d="M586.98,-99.87C615.29,-99.87 643.6,-99.87 671.9,-99.87"/>
<polygon fill="black" stroke="black" points="671.92,-103.37 681.92,-99.87 671.92,-96.37 671.92,-103.37"/>
</g>
<!-- 89c917e9&#45;3a08&#45;4151&#45;b2af&#45;aae82db50dbe -->
<g id="node7" class="node">
<title>89c917e9&#45;3a08&#45;4151&#45;b2af&#45;aae82db50dbe</title>
<polygon fill="white" stroke="black" points="662,-36 373,-36 373,0 662,0 662,-36"/>
<text text-anchor="middle" x="517.5" y="-14.3" font-family="Helvetica,sans-Serif" font-size="14.00">▶ Run GitHub Actions for `src/main.py`</text>
</g>
<!-- b811d1ad&#45;9333&#45;454c&#45;a4b3&#45;4382cc60eb3f&#45;&gt;89c917e9&#45;3a08&#45;4151&#45;b2af&#45;aae82db50dbe -->
<g id="edge3" class="edge">
<title>b811d1ad&#45;9333&#45;454c&#45;a4b3&#45;4382cc60eb3f&#45;&gt;89c917e9&#45;3a08&#45;4151&#45;b2af&#45;aae82db50dbe</title>
<path fill="none" stroke="black" stroke-dasharray="5,2" d="M517.5,-72.72C517.5,-64.27 517.5,-54.89 517.5,-46.36"/>
<polygon fill="black" stroke="black" points="521,-46.15 517.5,-36.15 514,-46.15 521,-46.15"/>
</g>
<!-- 1dc97468&#45;11c3&#45;496b&#45;adf5&#45;84a933a7875c&#45;&gt;end -->
<g id="edge7" class="edge">
<title>1dc97468&#45;11c3&#45;496b&#45;adf5&#45;84a933a7875c&#45;&gt;end</title>
<path fill="none" stroke="black" d="M911.41,-99.87C930.87,-99.87 948.17,-99.87 958.72,-99.87"/>
<polygon fill="black" stroke="black" points="958.83,-103.37 968.83,-99.87 958.83,-96.37 958.83,-103.37"/>
<text text-anchor="middle" x="940.03" y="-106.67" font-family="Helvetica,sans-Serif" font-size="14.00">Finish</text>
</g>
<!-- a7f0960c&#45;75da&#45;40fa&#45;b901&#45;40c969be4270 -->
<g id="node8" class="node">
<title>a7f0960c&#45;75da&#45;40fa&#45;b901&#45;40c969be4270</title>
<polygon fill="white" stroke="black" points="1033,-36 680,-36 680,0 1033,0 1033,-36"/>
<text text-anchor="middle" x="856.5" y="-14.3" font-family="Helvetica,sans-Serif" font-size="14.00">▶ Run GitHub Actions for `src/user_interface.py`</text>
</g>
<!-- 1dc97468&#45;11c3&#45;496b&#45;adf5&#45;84a933a7875c&#45;&gt;a7f0960c&#45;75da&#45;40fa&#45;b901&#45;40c969be4270 -->
<g id="edge5" class="edge">
<title>1dc97468&#45;11c3&#45;496b&#45;adf5&#45;84a933a7875c&#45;&gt;a7f0960c&#45;75da&#45;40fa&#45;b901&#45;40c969be4270</title>
<path fill="none" stroke="black" stroke-dasharray="5,2" d="M815.81,-73.16C822.74,-63.94 830.54,-53.56 837.44,-44.37"/>
<polygon fill="black" stroke="black" points="840.27,-46.43 843.48,-36.34 834.67,-42.23 840.27,-46.43"/>
</g>
</g>
</svg>
