<?xml version="1.0" encoding="UTF-8" standalone="no"?>
<!DOCTYPE svg PUBLIC "-//W3C//DTD SVG 1.1//EN"
 "http://www.w3.org/Graphics/SVG/1.1/DTD/svg11.dtd">
<!-- Generated by graphviz version 2.43.0 (0)
 -->
<!-- Title: %3 Pages: 1 -->
<svg width="1103pt" height="238pt"
 viewBox="0.00 0.00 1103.00 237.74" xmlns="http://www.w3.org/2000/svg" xmlns:xlink="http://www.w3.org/1999/xlink">
<g id="graph0" class="graph" transform="scale(1 1) rotate(0) translate(36 201.74)">
<title>%3</title>
<polygon fill="dimgray" stroke="transparent" points="-36,36 -36,-201.74 1067,-201.74 1067,36 -36,36"/>
<text text-anchor="middle" x="515.5" y="-150.54" font-family="Helvetica,sans-Serif" font-size="14.00">Sweep&#39;s Plan &amp; Progress</text>
<!-- start -->
<g id="node1" class="node">
<title>start</title>
</g>
<!-- 7cdd72b6&#45;1d7a&#45;4472&#45;8673&#45;a1e9aa722192 -->
<g id="node3" class="node">
<title>7cdd72b6&#45;1d7a&#45;4472&#45;8673&#45;a1e9aa722192</title>
<ellipse fill="yellow" stroke="black" cx="236.5" cy="-99.87" rx="114.6" ry="26.74"/>
<text text-anchor="middle" x="236.5" y="-103.67" font-family="Helvetica,sans-Serif" font-size="14.00">⋯ Create</text>
<text text-anchor="middle" x="236.5" y="-88.67" font-family="Helvetica,sans-Serif" font-size="14.00">src/user_interface.py</text>
</g>
<!-- start&#45;&gt;7cdd72b6&#45;1d7a&#45;4472&#45;8673&#45;a1e9aa722192 -->
<g id="edge6" class="edge">
<title>start&#45;&gt;7cdd72b6&#45;1d7a&#45;4472&#45;8673&#45;a1e9aa722192</title>
<path fill="none" stroke="black" d="M70.24,-99.87C73.88,-99.87 90.43,-99.87 111.78,-99.87"/>
<polygon fill="black" stroke="black" points="111.9,-103.37 121.9,-99.87 111.9,-96.37 111.9,-103.37"/>
<text text-anchor="middle" x="95.97" y="-106.67" font-family="Helvetica,sans-Serif" font-size="14.00">Start</text>
</g>
<!-- end -->
<g id="node2" class="node">
<title>end</title>
</g>
<!-- b811d1ad&#45;9333&#45;454c&#45;a4b3&#45;4382cc60eb3f -->
<g id="node4" class="node">
<title>b811d1ad&#45;9333&#45;454c&#45;a4b3&#45;4382cc60eb3f</title>
<ellipse fill="white" stroke="black" cx="515.5" cy="-99.87" rx="69.09" ry="26.74"/>
<text text-anchor="middle" x="515.5" y="-103.67" font-family="Helvetica,sans-Serif" font-size="14.00">▶ Modify</text>
<text text-anchor="middle" x="515.5" y="-88.67" font-family="Helvetica,sans-Serif" font-size="14.00">src/main.py</text>
</g>
<!-- 7cdd72b6&#45;1d7a&#45;4472&#45;8673&#45;a1e9aa722192&#45;&gt;b811d1ad&#45;9333&#45;454c&#45;a4b3&#45;4382cc60eb3f -->
<g id="edge2" class="edge">
<title>7cdd72b6&#45;1d7a&#45;4472&#45;8673&#45;a1e9aa722192&#45;&gt;b811d1ad&#45;9333&#45;454c&#45;a4b3&#45;4382cc60eb3f</title>
<path fill="none" stroke="black" d="M351.21,-99.87C379.53,-99.87 407.85,-99.87 436.17,-99.87"/>
<polygon fill="black" stroke="black" points="436.19,-103.37 446.19,-99.87 436.19,-96.37 436.19,-103.37"/>
</g>
<!-- 39f7ff88&#45;370f&#45;45c2&#45;8629&#45;c1491e957aa9 -->
<g id="node6" class="node">
<title>39f7ff88&#45;370f&#45;45c2&#45;8629&#45;c1491e957aa9</title>
<polygon fill="white" stroke="black" points="353,-36 0,-36 0,0 353,0 353,-36"/>
<text text-anchor="middle" x="176.5" y="-14.3" font-family="Helvetica,sans-Serif" font-size="14.00">▶ Run GitHub Actions for `src/user_interface.py`</text>
</g>
<!-- 7cdd72b6&#45;1d7a&#45;4472&#45;8673&#45;a1e9aa722192&#45;&gt;39f7ff88&#45;370f&#45;45c2&#45;8629&#45;c1491e957aa9 -->
<g id="edge1" class="edge">
<title>7cdd72b6&#45;1d7a&#45;4472&#45;8673&#45;a1e9aa722192&#45;&gt;39f7ff88&#45;370f&#45;45c2&#45;8629&#45;c1491e957aa9</title>
<path fill="none" stroke="black" stroke-dasharray="5,2" d="M217.19,-73.16C210.26,-63.94 202.46,-53.56 195.56,-44.37"/>
<polygon fill="black" stroke="black" points="198.33,-42.23 189.52,-36.34 192.73,-46.43 198.33,-42.23"/>
</g>
<!-- 1dc97468&#45;11c3&#45;496b&#45;adf5&#45;84a933a7875c -->
<g id="node5" class="node">
<title>1dc97468&#45;11c3&#45;496b&#45;adf5&#45;84a933a7875c</title>
<ellipse fill="white" stroke="black" cx="794.5" cy="-99.87" rx="114.6" ry="26.74"/>
<text text-anchor="middle" x="794.5" y="-103.67" font-family="Helvetica,sans-Serif" font-size="14.00">▶ Modify</text>
<text text-anchor="middle" x="794.5" y="-88.67" font-family="Helvetica,sans-Serif" font-size="14.00">src/user_interface.py</text>
</g>
<!-- b811d1ad&#45;9333&#45;454c&#45;a4b3&#45;4382cc60eb3f&#45;&gt;1dc97468&#45;11c3&#45;496b&#45;adf5&#45;84a933a7875c -->
<g id="edge4" class="edge">
<title>b811d1ad&#45;9333&#45;454c&#45;a4b3&#45;4382cc60eb3f&#45;&gt;1dc97468&#45;11c3&#45;496b&#45;adf5&#45;84a933a7875c</title>
<path fill="none" stroke="black" d="M584.98,-99.87C613.29,-99.87 641.6,-99.87 669.9,-99.87"/>
<polygon fill="black" stroke="black" points="669.92,-103.37 679.92,-99.87 669.92,-96.37 669.92,-103.37"/>
</g>
<!-- 89c917e9&#45;3a08&#45;4151&#45;b2af&#45;aae82db50dbe -->
<g id="node7" class="node">
<title>89c917e9&#45;3a08&#45;4151&#45;b2af&#45;aae82db50dbe</title>
<polygon fill="white" stroke="black" points="660,-36 371,-36 371,0 660,0 660,-36"/>
<text text-anchor="middle" x="515.5" y="-14.3" font-family="Helvetica,sans-Serif" font-size="14.00">▶ Run GitHub Actions for `src/main.py`</text>
</g>
<!-- b811d1ad&#45;9333&#45;454c&#45;a4b3&#45;4382cc60eb3f&#45;&gt;89c917e9&#45;3a08&#45;4151&#45;b2af&#45;aae82db50dbe -->
<g id="edge3" class="edge">
<title>b811d1ad&#45;9333&#45;454c&#45;a4b3&#45;4382cc60eb3f&#45;&gt;89c917e9&#45;3a08&#45;4151&#45;b2af&#45;aae82db50dbe</title>
<path fill="none" stroke="black" stroke-dasharray="5,2" d="M515.5,-72.72C515.5,-64.27 515.5,-54.89 515.5,-46.36"/>
<polygon fill="black" stroke="black" points="519,-46.15 515.5,-36.15 512,-46.15 519,-46.15"/>
</g>
<!-- 1dc97468&#45;11c3&#45;496b&#45;adf5&#45;84a933a7875c&#45;&gt;end -->
<g id="edge7" class="edge">
<title>1dc97468&#45;11c3&#45;496b&#45;adf5&#45;84a933a7875c&#45;&gt;end</title>
<path fill="none" stroke="black" d="M909.41,-99.87C928.87,-99.87 946.17,-99.87 956.72,-99.87"/>
<polygon fill="black" stroke="black" points="956.83,-103.37 966.83,-99.87 956.83,-96.37 956.83,-103.37"/>
<text text-anchor="middle" x="938.03" y="-106.67" font-family="Helvetica,sans-Serif" font-size="14.00">Finish</text>
</g>
<!-- a7f0960c&#45;75da&#45;40fa&#45;b901&#45;40c969be4270 -->
<g id="node8" class="node">
<title>a7f0960c&#45;75da&#45;40fa&#45;b901&#45;40c969be4270</title>
<polygon fill="white" stroke="black" points="1031,-36 678,-36 678,0 1031,0 1031,-36"/>
<text text-anchor="middle" x="854.5" y="-14.3" font-family="Helvetica,sans-Serif" font-size="14.00">▶ Run GitHub Actions for `src/user_interface.py`</text>
</g>
<!-- 1dc97468&#45;11c3&#45;496b&#45;adf5&#45;84a933a7875c&#45;&gt;a7f0960c&#45;75da&#45;40fa&#45;b901&#45;40c969be4270 -->
<g id="edge5" class="edge">
<title>1dc97468&#45;11c3&#45;496b&#45;adf5&#45;84a933a7875c&#45;&gt;a7f0960c&#45;75da&#45;40fa&#45;b901&#45;40c969be4270</title>
<path fill="none" stroke="black" stroke-dasharray="5,2" d="M813.81,-73.16C820.74,-63.94 828.54,-53.56 835.44,-44.37"/>
<polygon fill="black" stroke="black" points="838.27,-46.43 841.48,-36.34 832.67,-42.23 838.27,-46.43"/>
</g>
</g>
</svg>
